<?xml version="1.0" encoding="UTF-8" standalone="no"?>
<!-- Created with Inkscape (http://www.inkscape.org/) -->

<svg
   xmlns:dc="http://purl.org/dc/elements/1.1/"
   xmlns:cc="http://creativecommons.org/ns#"
   xmlns:rdf="http://www.w3.org/1999/02/22-rdf-syntax-ns#"
   xmlns:svg="http://www.w3.org/2000/svg"
   xmlns="http://www.w3.org/2000/svg"
   xmlns:sodipodi="http://sodipodi.sourceforge.net/DTD/sodipodi-0.dtd"
   xmlns:inkscape="http://www.inkscape.org/namespaces/inkscape"
   width="1000"
   height="1000"
   id="svg3054"
   version="1.1"
   inkscape:version="0.48.4 r9939"
   sodipodi:docname="Neues Dokument 5">
  <defs
     id="defs5498" />
  <sodipodi:namedview
     inkscape:window-height="776"
     inkscape:window-width="1280"
     inkscape:pageshadow="2"
     inkscape:pageopacity="0.0"
     borderopacity="1.0"
     bordercolor="#666666"
     pagecolor="#ffffff"
     id="base"
     showgrid="false"
     showguides="true"
     inkscape:guide-bbox="true"
     inkscape:zoom="0.454"
     inkscape:cx="500"
     inkscape:cy="500"
     inkscape:window-x="0"
     inkscape:window-y="24"
     inkscape:current-layer="layer1"
     inkscape:window-maximized="1">
    <sodipodi:guide
       orientation="horizontal"
       position="200"
       id="guide5596" />
  </sodipodi:namedview>
  <metadata
     id="metadata5594">
    <rdf:RDF>
      <cc:Work
         rdf:about="">
        <dc:format>image/svg+xml</dc:format>
        <dc:type
           rdf:resource="http://purl.org/dc/dcmitype/StillImage" />
        <dc:title></dc:title>
      </cc:Work>
    </rdf:RDF>
  </metadata>
  <g
     inkscape:label="Layer 1"
     inkscape:groupmode="layer"
     id="layer1">
    <path
       inkscape:connector-curvature="0"
       d="m 883.57508,553.82161 -138.82929,-24.47798 6.81666,-8.73801 131.57971,23.20095 c 0.084,0.016 0.16796,0.0232 0.25194,0.0232 0.39092,0 0.76738,-0.15782 1.04393,-0.4445 0.33445,-0.3475 0.47346,-0.83978 0.3721,-1.31179 -0.24904,-1.14238 -0.50096,-2.09219 -0.79054,-2.99133 l -3.38372,-10.40742 c -0.16507,-0.50966 -0.59798,-0.88466 -1.12501,-0.97733 l -118.74563,-20.93791 1.31612,-0.23165 c 0.35184,-0.0623 0.66892,-0.25194 0.889,-0.53428 l 6.02611,-7.72159 105.56986,18.61405 c 0.084,0.016 0.16796,0.0232 0.25193,0.0232 0.41555,0 0.81516,-0.17809 1.09316,-0.49808 0.33301,-0.38514 0.44161,-0.91506 0.28378,-1.39865 l -4.32049,-13.29162 c -0.16506,-0.50965 -0.59798,-0.88466 -1.12501,-0.97732 l -91.14166,-16.07156 6.29108,-8.06039 c 0.16505,-0.2114 0.25483,-0.46042 0.28523,-0.7167 l 79.62081,14.03872 c 0.0855,0.0145 0.16796,0.0217 0.25194,0.0217 0.41553,0 0.81516,-0.17953 1.09315,-0.49807 0.33301,-0.38369 0.44161,-0.91362 0.28379,-1.39721 l -4.3205,-13.29161 c -0.16506,-0.50966 -0.59798,-0.88467 -1.12501,-0.97878 l -64.98122,-11.45859 6.8268,-8.73365 53.21133,9.38232 c 0.0855,0.0145 0.16795,0.0217 0.25193,0.0217 0.41555,0 0.81516,-0.17954 1.09316,-0.49808 0.33301,-0.38369 0.4416,-0.91361 0.28379,-1.3972 l -4.32051,-13.29162 c -0.16506,-0.50966 -0.59797,-0.88466 -1.125,-0.97877 l -38.76431,-6.83548 2.69741,-3.45032 c 0.36922,-0.47201 0.40831,-1.12355 0.0999,-1.63755 -0.26496,-0.44017 -0.73987,-0.70224 -1.24084,-0.70224 -0.084,0 -0.1665,0.007 -0.25193,0.0217 l -195.33892,34.43802 2.16026,-6.6516 198.67195,-35.02875 -1.45223,1.86198 c -0.31274,0.40107 -0.39238,0.93533 -0.21139,1.41024 0.18243,0.47347 0.59942,0.81806 1.10039,0.90639 l 27.58082,4.862 c 0.0855,0.0145 0.16795,0.0217 0.25193,0.0217 0.41555,0 0.81516,-0.17954 1.09316,-0.49808 0.33302,-0.38369 0.4416,-0.91361 0.28379,-1.3972 l -4.32051,-13.29017 c -0.16506,-0.50966 -0.59797,-0.88467 -1.125,-0.97878 l -12.56767,-2.21671 8.22979,-10.5551 c 0.006,-0.007 0.007,-0.0145 0.0131,-0.0217 0.004,-0.006 0.0116,-0.0101 0.016,-0.0174 0.009,-0.0116 0.007,-0.0261 0.016,-0.0377 0.11294,-0.16506 0.18533,-0.34605 0.22152,-0.53716 0.006,-0.0261 0.016,-0.0493 0.0202,-0.0767 0.0276,-0.19546 0.007,-0.39238 -0.0463,-0.58495 -0.006,-0.0202 0.003,-0.0419 -0.004,-0.0623 L 754.48138,141.55288 c -2.1892,-6.80798 -8.22979,-11.20811 -15.38669,-11.20811 -7.15547,0 -13.21054,4.39724 -15.42581,11.20376 l -85.5224,263.23039 H 355.17125 L 269.63292,141.54998 c -2.20948,-6.80653 -8.25731,-11.20376 -15.40698,-11.20376 -7.14824,0 -13.19896,4.39723 -15.41423,11.20376 l -85.85397,264.22943 c -0.0985,0.30261 -0.0579,0.61245 0.0434,0.90638 l -2.06034,6.33885 c -0.12886,0.39817 -0.0796,0.83398 0.1361,1.19306 0.21575,0.35908 0.57626,0.60667 0.98892,0.68051 l 8.33693,1.4696 8.98705,11.52374 -20.77864,-3.6646 c -0.0855,-0.0145 -0.16941,-0.0217 -0.25194,-0.0217 -0.6168,0 -1.18003,0.39527 -1.37695,1.0005 l -3.85138,11.84951 c -0.12886,0.39817 -0.0796,0.83399 0.1361,1.19306 0.21574,0.35908 0.57627,0.60667 0.99037,0.68051 l 39.1422,6.90208 8.99283,11.52374 -51.58969,-9.09708 c -0.0855,-0.0145 -0.16941,-0.0217 -0.25194,-0.0217 -0.6168,0 -1.18003,0.39527 -1.37695,1.00048 l -3.84993,11.84952 c -0.12886,0.39817 -0.0796,0.83398 0.1361,1.19306 0.21574,0.35907 0.57627,0.60667 0.98892,0.68051 l 69.94457,12.33311 8.98414,11.52229 -82.38337,-14.52666 c -0.0855,-0.0145 -0.16941,-0.0217 -0.25194,-0.0217 -0.6168,0 -1.18003,0.39527 -1.37695,1.0005 l -3.84993,11.84951 c -0.12886,0.39817 -0.0796,0.83398 0.1361,1.19306 0.21574,0.35908 0.57627,0.60667 0.98892,0.6805 l 100.85119,17.78297 c 0.0521,0.14624 0.11872,0.28668 0.21573,0.41265 l 8.66995,11.09372 -113.19153,-19.95914 c -0.0855,-0.016 -0.16942,-0.0232 -0.25194,-0.0232 -0.6168,0 -1.18003,0.39528 -1.37694,1.00049 l -3.84994,11.85097 c -0.12886,0.39816 -0.0796,0.83253 0.1361,1.19161 0.21574,0.36052 0.57626,0.60811 0.98891,0.68051 l 132.31382,23.32976 c -0.0897,0.41555 -0.003,0.85281 0.26209,1.19161 l 7.93443,10.19316 -143.96498,-25.38437 c -0.0854,-0.016 -0.1694,-0.0232 -0.25193,-0.0232 -0.6168,0 -1.18003,0.39527 -1.37694,1.0005 l -3.84994,11.84951 c -0.12886,0.39672 -0.0796,0.83254 0.1361,1.19161 0.21574,0.35908 0.57626,0.60812 0.98891,0.68051 l 163.27401,28.7898 c 0.084,0.016 0.16795,0.0232 0.25193,0.0232 0.50242,0 0.97588,-0.26206 1.24084,-0.70078 0.3084,-0.514 0.2693,-1.16555 -0.0985,-1.63756 l -2.82917,-3.62551 120.1168,-21.20721 1.93293,5.94936 -118.91359,20.96543 c -0.49953,0.0883 -0.91797,0.43147 -1.09895,0.90493 -0.18245,0.4749 -0.10278,1.00918 0.20849,1.41024 l 7.22786,9.27661 -174.03617,-30.68798 c -0.084,-0.016 -0.16796,-0.0232 -0.25193,-0.0232 -0.31564,0 -0.62404,0.10279 -0.87742,0.29682 -0.32144,0.24614 -0.52559,0.61391 -0.56323,1.01641 -0.41989,4.51452 0.18388,9.16514 1.74615,13.45089 0.17664,0.48649 0.59943,0.84122 1.10908,0.93098 l 187.82294,33.119 c 0.084,0.016 0.16796,0.0232 0.25194,0.0232 0.50242,0 0.97588,-0.26206 1.24085,-0.70077 0.3084,-0.514 0.2693,-1.16556 -0.0985,-1.63757 l -2.12405,-2.72202 107.04815,-18.87323 1.92714,5.932 -105.83772,18.6821 c -0.50096,0.0883 -0.91796,0.43147 -1.10039,0.90638 -0.18244,0.47345 -0.10279,1.00918 0.21139,1.41025 l 6.50825,8.33549 L 123.997,572.33431 c -0.0855,-0.016 -0.1694,-0.0232 -0.25193,-0.0232 -0.57337,0 -1.10185,0.34025 -1.33207,0.88176 -0.26351,0.62114 -0.0637,1.34075 0.48215,1.73602 l 22.77093,16.54357 c 0.1781,0.13031 0.38369,0.21573 0.59944,0.25483 l 176.00962,31.03547 c 0.084,0.016 0.16796,0.0232 0.25194,0.0232 0.50241,0 0.97587,-0.26206 1.24083,-0.70078 0.3084,-0.514 0.26931,-1.16555 -0.0985,-1.63756 l -1.42037,-1.82 93.96937,-16.56818 1.93149,5.94648 -92.75315,16.36113 c -0.50098,0.0884 -0.91797,0.43147 -1.1004,0.90638 -0.18244,0.47346 -0.10279,1.00918 0.21139,1.41024 l 5.80603,7.43781 -160.13644,-28.23527 c -0.0855,-0.016 -0.1694,-0.0232 -0.25193,-0.0232 -0.57336,0 -1.10184,0.34026 -1.33206,0.88177 -0.26351,0.62114 -0.0637,1.34074 0.48216,1.73601 l 22.76948,16.54357 c 0.1781,0.13031 0.38369,0.21574 0.59942,0.25483 l 152.81881,26.9452 c 0.084,0.016 0.16796,0.0232 0.25193,0.0232 0.50098,0 0.97588,-0.26207 1.2394,-0.70077 0.30839,-0.514 0.2693,-1.16555 -0.0985,-1.63756 l -0.70222,-0.9006 80.88771,-14.25011 1.92714,5.93055 -79.66714,14.03873 c -0.50097,0.0883 -0.91796,0.43147 -1.10039,0.90638 -0.18099,0.47346 -0.10278,1.00772 0.20994,1.41024 l 5.1009,6.54155 -136.95573,-24.15077 c -0.0855,-0.016 -0.16941,-0.0232 -0.25194,-0.0232 -0.57337,0 -1.10184,0.34026 -1.33205,0.88176 -0.26351,0.62115 -0.0636,1.34075 0.48214,1.73602 l 22.77094,16.54357 c 0.17809,0.13031 0.38369,0.21574 0.59943,0.25483 l 129.62798,22.85781 c 0.084,0.016 0.16794,0.0232 0.25192,0.0232 0.50097,0 0.97588,-0.26207 1.23939,-0.70077 0.30552,-0.50966 0.26787,-1.14963 -0.0897,-1.62019 l 67.80169,-11.96246 1.93148,5.94649 -66.58403,11.73513 c -0.50096,0.0883 -0.91795,0.43147 -1.10038,0.90637 -0.181,0.47346 -0.10278,1.00774 0.20994,1.41024 l 4.38275,5.61926 -113.762,-20.05904 c -0.0855,-0.016 -0.1694,-0.0232 -0.25194,-0.0232 -0.57336,0 -1.10184,0.34026 -1.33205,0.88177 -0.26352,0.62114 -0.0636,1.34074 0.48214,1.73601 l 22.76949,16.54357 c 0.17809,0.13031 0.38369,0.21573 0.59943,0.25483 l 106.43859,18.76752 c 0.084,0.016 0.16796,0.0232 0.25192,0.0232 0.50242,0 0.97588,-0.26207 1.24085,-0.70078 0.11727,-0.19401 0.16796,-0.4083 0.18533,-0.62403 l 55.15006,-9.75298 1.93727,5.9653 -53.5096,9.43009 c -0.50097,0.0883 -0.91796,0.43147 -1.1004,0.90638 -0.18243,0.47491 -0.10132,1.00918 0.2114,1.41169 l 3.67473,4.70129 -90.56829,-15.9702 c -0.0855,-0.016 -0.1694,-0.0232 -0.25193,-0.0232 -0.57336,0 -1.10184,0.34025 -1.33205,0.88177 -0.26352,0.62114 -0.0638,1.34075 0.48214,1.73602 l 22.77094,16.54357 c 0.17808,0.13031 0.38369,0.21573 0.59942,0.25483 l 82.89738,14.61787 c 0.0869,0.0173 0.16651,0.0594 0.25628,0.0594 0.0173,0 0.0347,-0.005 0.0535,-0.005 l 0.0405,0.007 c 0.084,0.016 0.16795,0.0232 0.25193,0.0232 0.25338,0 0.49808,-0.0666 0.71381,-0.18967 l 43.4989,-7.65209 1.93293,5.94938 -40.42504,7.1265 c -0.49951,0.0883 -0.91795,0.43147 -1.10038,0.90637 -0.18244,0.47346 -0.10279,1.00919 0.21139,1.41025 l 2.95224,3.78188 -67.37313,-11.87846 c -0.0855,-0.016 -0.16939,-0.0232 -0.25192,-0.0232 -0.57337,0 -1.10185,0.34026 -1.33207,0.88177 -0.26351,0.62114 -0.0636,1.34074 0.48215,1.73601 l 22.77093,16.54357 c 0.1781,0.13031 0.38369,0.21574 0.59944,0.25483 l 59.10568,10.42191 0.42278,0.54295 c 0.27654,0.35474 0.69933,0.55743 1.14094,0.55743 0.084,0 0.16794,-0.007 0.25192,-0.0232 l 31.2266,-5.5208 1.93584,5.96096 -27.34047,4.82436 c -0.50098,0.0883 -0.91797,0.43147 -1.1004,0.90637 -0.18243,0.47346 -0.10278,1.00919 0.21139,1.41025 l 2.23555,2.86538 -44.17941,-7.79109 c -0.0855,-0.016 -0.16941,-0.0232 -0.25194,-0.0232 -0.57336,0 -1.10184,0.34025 -1.33205,0.88176 -0.26352,0.62115 -0.0638,1.34074 0.48214,1.73602 l 22.77094,16.54502 c 0.17809,0.13031 0.38369,0.21574 0.59942,0.25483 l 35.91342,6.33161 1.14094,1.46092 c 0.27654,0.35474 0.69932,0.55743 1.14093,0.55743 0.0825,0 0.1665,-0.007 0.25048,-0.0217 l 18.15507,-3.18391 1.92714,5.93055 -14.2588,2.52077 c -0.49952,0.0883 -0.91652,0.43293 -1.09895,0.90639 -0.18098,0.47346 -0.10278,1.00917 0.20995,1.41024 l 1.51593,1.94451 -20.98424,-3.70081 c -0.0855,-0.016 -0.16941,-0.0232 -0.25194,-0.0232 -0.57335,0 -1.10183,0.34026 -1.33205,0.88177 -0.26351,0.62114 -0.0636,1.34074 0.48215,1.73601 l 22.77093,16.54357 c 0.1781,0.13031 0.38369,0.21574 0.59944,0.25483 l 12.70521,2.24133 1.87212,2.4006 c 0.27655,0.35473 0.70078,0.55744 1.14238,0.55744 0.0855,0 0.17085,-0.007 0.25628,-0.0232 l 5.05892,-0.91218 1.92859,5.93634 -1.17714,0.2056 c -0.50097,0.0883 -0.9194,0.43147 -1.10184,0.90493 -0.18388,0.47346 -0.10424,1.00918 0.20849,1.41169 l 1.58833,2.04008 c -0.0564,0.0825 -0.11582,0.16071 -0.15491,0.25482 -0.26352,0.62115 -0.0638,1.34075 0.48214,1.73747 l 2.81759,2.04587 0.35183,0.45318 c 0.009,0.0116 0.0217,0.0145 0.0304,0.0246 0.0623,0.0767 0.14189,0.1361 0.22008,0.19981 0.0348,0.029 0.0666,0.0565 0.10424,0.0825 0.0377,0.0261 0.0651,0.0608 0.10717,0.084 0.0116,0.007 0.0261,0.009 0.0377,0.0145 0.0188,0.0101 0.0377,0.0145 0.0579,0.0232 0.0434,0.0188 0.0868,0.0348 0.13032,0.0493 0.0116,0.005 0.0217,0.009 0.0333,0.013 0.139,0.0419 0.27945,0.071 0.42134,0.071 0.003,0 0.006,-10e-4 0.0101,-10e-4 0.003,0 0.004,10e-4 0.007,10e-4 0.0188,0 0.0362,-0.009 0.055,-0.009 0.0449,-0.003 0.0897,-0.0101 0.1332,-0.0173 0.055,0.007 0.10717,0.0261 0.16072,0.0261 0.17085,0 0.34025,-0.0391 0.50387,-0.0999 0.0522,-0.0202 0.0984,-0.0493 0.14912,-0.0767 0.0666,-0.0333 0.1361,-0.055 0.19837,-0.0999 l 2.33399,-1.69548 c 0.47056,-0.34026 0.69065,-0.93099 0.56034,-1.49567 -0.0478,-0.20415 -0.14769,-0.38224 -0.27076,-0.54151 l 4.02803,-5.1487 c 0.3692,-0.47056 0.40974,-1.12066 0.10278,-1.6361 -0.26496,-0.44161 -0.73988,-0.70367 -1.24228,-0.70367 -0.0825,0 -0.16362,0.007 -0.2476,0.0217 l -1.78524,0.3084 2.1588,-6.64436 5.16462,-0.9252 -2.51643,3.22589 c -0.31275,0.39963 -0.39238,0.93534 -0.21139,1.41024 0.18243,0.47491 0.59942,0.81807 1.10039,0.90639 l 6.31859,1.11487 c 0.084,0.016 0.16795,0.0232 0.25193,0.0232 0.30405,0 0.60232,-0.0956 0.85136,-0.27654 l 13.87655,-10.08165 c 0.46912,-0.34024 0.69064,-0.93098 0.56033,-1.49567 -0.13175,-0.56757 -0.58784,-0.99904 -1.15975,-1.10038 l -9.54014,-1.68246 6.821,-8.73511 16.47986,2.90591 c 0.084,0.016 0.16796,0.0232 0.25193,0.0232 0.30406,0 0.60232,-0.0956 0.85136,-0.27654 l 13.87511,-10.0831 c 0.46912,-0.34025 0.69065,-0.93099 0.56034,-1.49566 -0.13177,-0.56757 -0.58784,-0.99904 -1.15976,-1.1004 l -20.24437,-3.56904 0.16217,-0.2085 c 0.3692,-0.47201 0.40829,-1.12212 0.0999,-1.63756 -0.26642,-0.44016 -0.73988,-0.70078 -1.24085,-0.70078 -0.084,0 -0.16796,0.007 -0.25194,0.0232 l -21.15074,3.73844 2.16894,-6.67475 25.32645,-4.46819 c 0.016,0.0623 0.0217,0.12597 0.0449,0.18677 0.18243,0.47491 0.59942,0.81807 1.10039,0.90639 l 27.74588,4.89241 c 0.084,0.016 0.16795,0.0232 0.25193,0.0232 0.30406,0 0.60232,-0.0956 0.85136,-0.27655 l 13.87656,-10.08165 c 0.46911,-0.34025 0.69065,-0.93099 0.56034,-1.49566 -0.13177,-0.56757 -0.5864,-0.99904 -1.15977,-1.1004 l -30.97901,-5.46143 6.821,-8.73801 37.91729,6.68635 c 0.084,0.016 0.16796,0.0232 0.25194,0.0232 0.30405,0 0.60232,-0.0956 0.85136,-0.27655 l 13.87655,-10.08164 c 0.46912,-0.34026 0.69064,-0.931 0.56033,-1.49567 -0.13175,-0.56758 -0.58784,-0.99905 -1.15975,-1.1004 l -43.74359,-7.7129 c -0.0855,-0.016 -0.16796,-0.0232 -0.25193,-0.0232 -0.44162,0 -0.8644,0.2027 -1.14094,0.55744 l -1.5116,1.93727 -40.33961,7.0932 2.16026,-6.64725 47.16639,-8.30943 c 0.35183,-0.0608 0.67038,-0.25193 0.88901,-0.53427 l 1.90976,-2.44693 48.62152,8.57294 c 0.084,0.016 0.16796,0.0232 0.25194,0.0232 0.30405,0 0.60233,-0.0956 0.85135,-0.27654 l 13.87657,-10.08164 c 0.46912,-0.34025 0.69064,-0.93099 0.56033,-1.49568 -0.13176,-0.56757 -0.58784,-0.99903 -1.15975,-1.10038 l -52.39474,-9.23898 6.81666,-8.73656 59.33735,10.46389 c 0.084,0.016 0.16796,0.0232 0.25193,0.0232 0.30406,0 0.60232,-0.0956 0.85136,-0.27655 l 13.87656,-10.08309 c 0.46911,-0.34026 0.69064,-0.931 0.56033,-1.49567 -0.13176,-0.56757 -0.58784,-0.99904 -1.15976,-1.1004 l -65.17089,-11.49188 c -0.0855,-0.016 -0.16794,-0.0232 -0.25192,-0.0232 -0.44161,0 -0.8644,0.2027 -1.14094,0.55743 l -5.09512,6.52999 -59.70511,10.53337 2.16024,-6.65159 66.5406,-11.74672 c 0.35184,-0.0623 0.67037,-0.25338 0.889,-0.53426 l 5.48895,-7.03674 70.04448,12.35048 c 0.084,0.016 0.16795,0.0232 0.25193,0.0232 0.30406,0 0.60232,-0.0956 0.85136,-0.27655 l 13.87655,-10.08164 c 0.46912,-0.34026 0.69065,-0.931 0.56034,-1.49567 -0.13176,-0.56757 -0.5864,-0.99905 -1.15976,-1.1004 l -73.81622,-13.01651 6.81375,-8.73656 80.76174,14.23998 c 0.084,0.016 0.16796,0.0232 0.25194,0.0232 0.30405,0 0.60232,-0.0956 0.85136,-0.27655 l 13.87655,-10.08164 c 0.46912,-0.34025 0.69065,-0.93099 0.56034,-1.49567 -0.13175,-0.56757 -0.58784,-0.99904 -1.15976,-1.10039 l -84.54073,-14.90602 6.82245,-8.73799 91.47901,16.13092 c 0.084,0.016 0.16795,0.0232 0.25193,0.0232 0.30406,0 0.60232,-0.0956 0.85136,-0.27654 l 13.87656,-10.08164 c 0.46911,-0.34026 0.69064,-0.931 0.56033,-1.49567 -0.13176,-0.56758 -0.58785,-0.99905 -1.15976,-1.1004 l -95.24352,-16.79406 3.223,-4.12937 c 0.36921,-0.47201 0.40831,-1.12211 0.0999,-1.63756 -0.26641,-0.44017 -0.73988,-0.70079 -1.24084,-0.70079 -0.084,0 -0.16651,0.007 -0.25193,0.0232 l -98.55774,17.40216 2.18197,-6.71676 101.90815,-17.93932 -1.98795,2.54684 c -0.31274,0.39961 -0.39238,0.93532 -0.2114,1.41024 0.18244,0.4749 0.59943,0.81805 1.1004,0.90637 l 102.74213,18.11742 c 0.084,0.016 0.16796,0.0232 0.25194,0.0232 0.30405,0 0.60232,-0.0956 0.85135,-0.27654 l 13.87656,-10.0831 c 0.46912,-0.34025 0.69064,-0.93099 0.56033,-1.49567 -0.13176,-0.56757 -0.58783,-0.99904 -1.15976,-1.1004 l -105.94775,-18.68065 6.821,-8.73655 112.88749,19.90556 c 0.084,0.016 0.16795,0.0232 0.25193,0.0232 0.30406,0 0.60232,-0.0956 0.85136,-0.27655 l 13.87655,-10.08309 c 0.46912,-0.34025 0.69065,-0.93099 0.56034,-1.49567 -0.13176,-0.56756 -0.58785,-0.99903 -1.15976,-1.10039 l -116.78471,-20.5926 c 0.1057,-0.37645 0.0695,-0.78619 -0.14046,-1.13513 -0.26641,-0.44017 -0.73986,-0.70079 -1.24084,-0.70079 -0.084,0 -0.16649,0.007 -0.25192,0.0232 l -117.91601,20.78154 2.16894,-6.67043 122.85909,-21.66184 c 0.21718,0.28667 0.53428,0.48938 0.89914,0.55309 l 124.16943,21.89351 c 0.084,0.016 0.16795,0.0232 0.25193,0.0232 0.30406,0 0.60232,-0.0956 0.85136,-0.27654 l 13.87656,-10.08164 c 0.46911,-0.34025 0.69064,-0.93099 0.56033,-1.49568 -0.13176,-0.56757 -0.5864,-0.99903 -1.15976,-1.10038 l -127.3736,-22.4611 6.81376,-8.73655 134.31913,23.68311 c 0.084,0.016 0.16794,0.0232 0.25192,0.0232 0.30407,0 0.60233,-0.0956 0.85136,-0.27654 l 13.87801,-10.08165 c 0.46912,-0.34026 0.69064,-0.931 0.56033,-1.49567 -0.13175,-0.56757 -0.58784,-0.99904 -1.15975,-1.1004 l -140.16715,-24.7141 c -0.0855,-0.016 -0.16796,-0.0232 -0.25193,-0.0232 -0.44161,0 -0.86439,0.2027 -1.14094,0.55744 l -2.03717,2.61199 -137.12224,24.14353 2.16314,-6.65594 143.95626,-25.38582 c 0.35185,-0.0623 0.67038,-0.25193 0.88901,-0.53427 l 2.42956,-3.11296 143.42633,25.29026 c 0.0855,0.016 0.16796,0.0232 0.25194,0.0232 0.44161,0 0.86438,-0.20271 1.14094,-0.55744 2.7756,-3.55746 4.77368,-7.75055 5.77707,-12.12462 0.0897,-0.38659 0.016,-0.79344 -0.20415,-1.12356 -0.22152,-0.33301 -0.56613,-0.55888 -0.95561,-0.62694 z m -93.54805,-86.79943 -5.07049,6.49812 c -0.17376,0.22297 -0.26932,0.48793 -0.29248,0.76159 -0.0535,0.003 -0.10571,0.005 -0.15927,0.0145 l -175.98644,31.03259 2.16894,-6.67188 179.33974,-31.6349 z m -19.61887,-59.34749 -138.07205,24.35493 2.16893,-6.67331 100.25756,-17.68162 h 35.64556 z m -538.6911,94.92789 -4.27127,-5.47302 146.30187,-25.79412 1.93003,5.94068 -143.92733,25.38872 c -0.0131,-0.0217 -0.0188,-0.0434 -0.0333,-0.0623 z m -23.6556,-30.31878 -4.32339,-5.54107 159.39656,-28.08178 1.92859,5.93634 -157.00176,27.68651 z m -23.71351,-30.38971 -4.29589,-5.50632 162.79331,-28.71308 h 10.2221 l 1.37549,4.23219 -170.09501,29.98721 z m -23.69613,-30.36946 -3.00437,-3.84994 h 24.86168 l -21.85731,3.84994 z m 94.33427,121.58061 c 0.0391,-0.36632 -0.0463,-0.73988 -0.28234,-1.04249 l -3.56472,-4.56953 133.22453,-23.48474 1.93294,5.94792 -131.31041,23.14884 z m 378.71827,134.26555 -5.58595,7.1598 c -0.0289,0.0362 -0.0449,0.0796 -0.0695,0.11873 l -79.07785,13.93881 2.1617,-6.65304 82.5716,-14.5643 z m -37.09779,-125.38276 2.16025,-6.65015 160.01045,-28.22803 c -0.0246,0.0276 -0.0594,0.0362 -0.0811,0.0651 l -5.61926,7.20324 -156.47036,27.60978 z"
       id="path3035" />
  </g>
</svg>
